<svg xmlns="http://www.w3.org/2000/svg" viewBox="0 0 576 576">
	<style>
		path {
			fill: #333333
		}

		@media (prefers-color-scheme: dark) {
			path {
				fill: #ffffff
			}
		}
	</style>
	<path d="M291.8 15.6c-.3.3-6.8.7-14.4.9-7.7.3-15.5.7-17.5.9-2 .3-5.6.7-8 1-44.4 5.5-91.4 24.9-128.4 53C111.2 80.8 110.4 81.5 95 97c-22.6 22.8-36.5 42.1-50.5 70-2.4 4.7-5.5 11.4-6.9 15-1.5 3.6-3.1 7.4-3.6 8.5-1.1 2.3-5 14.2-5.5 16.5-.2.8-.8 2.7-1.4 4.3-.9 2.4-2.2 7.4-4.7 18.3-4.6 20.4-5.8 32.3-5.8 57.9-.1 27 1.6 42.2 7.1 64 1.4 5.5 2.6 10.7 2.8 11.5.4 2.1 6.4 20 7.5 22.5.4 1.1 1.6 4 2.6 6.5 5.4 13.4 25.5 49.8 29.3 53 .4.3 1.4 1.7 2.4 3.2 7.5 11.9 36.8 42.4 50.6 52.8 4 3 7.8 6 8.4 6.5 1.7 1.5 18.4 12.5 23.2 15.3 5.5 3.1 28.1 14.3 33 16.4 15.3 6.3 41.5 14.1 51.3 15.4 1.9.2 3.8.6 4.2.9.7.4 4.9 1.1 13 2 1.9.2 5.5.6 8 .9 2.5.4 8.4.8 13.1 1.1 4.7.2 9 .5 9.5.6.5.1 1.1.1 1.4 0 .3-.1 6.8-.4 14.5-.6 7.7-.3 15.4-.7 17-.9 1.7-.2 5.7-.7 9-1.1 3.3-.3 9.4-1.3 13.5-2.2 4.1-.8 8.2-1.6 9-1.8l8-2 8-2c.8-.2 6.5-2 12.5-4 20.4-7 42.7-17.7 59.4-28.7 4.1-2.6 7.5-4.8 7.7-4.8.4 0 3.8-2.8 5.9-4.7.8-.7 1.7-1.3 2.1-1.3 1.4 0 23.1-19 31.4-27.5 10-10.2 9.5-9.6 14.5-16 2.2-2.8 4.3-5.2 4.6-5.5.3-.3 3-3.9 6.1-8 5-6.9 8.1-11.6 14.9-22.5 3.7-5.8 13.3-24.9 16.3-32.5 1.5-3.6 3.1-7.4 3.6-8.5 1.9-3.8 7.1-21 10-32.5 5.9-23.9 7.5-37.3 7.4-64.5 0-27.5-1.6-42.2-7.1-64-1.4-5.5-2.6-10.7-2.8-11.6-.6-2.8-7.7-23.3-9.7-27.9-5-11.5-9.6-21-12.7-26.5-1.8-3.3-4.5-8-5.9-10.5-12.7-22.5-41.5-55.4-63.7-72.8-10.2-8-22.2-16.3-29.5-20.4-2.5-1.4-7.2-4.1-10.5-5.9-5.5-3.1-14.7-7.5-26.5-12.7-10.7-4.7-38.7-13.1-49-14.8-1.9-.3-5.2-1-7.4-1.5-2.1-.6-4-.8-4.3-.6-.2.3-1.8.1-3.5-.4-3.2-.9-11.7-1.7-25.1-2.4-4.3-.2-8.1-.6-8.6-.9-.4-.3-1.1-.3-1.3 0zm21.7 33.8c1.7.2 5.9.8 9.5 1.1 3.6.4 7.3 1.1 8.3 1.6.9.6 1.7.8 1.7.5 0-.3 2 0 10.5 2 1.1.3 2.9.7 4 .9 4.1.9 18.3 5.4 26 8.3 13.2 4.9 39.6 18.2 40.3 20.3.2.5.8.9 1.3.9 1.3 0 13.3 8.1 13.7 9.2.2.4.9.8 1.5.8.7 0 2.6 1.2 4.2 2.8 1.7 1.5 4.8 4 7 5.7 5.2 3.9 24.9 23.6 30 30 2.2 2.7 4.8 5.9 5.8 7 3 3.3 15.7 22.3 15.7 23.4 0 .6.3 1.1.8 1.1.4 0 1.2 1 1.8 2.3.5 1.2 2.8 5.6 5 9.7 11.1 20.6 20.4 48.2 24 71 .3 1.9.7 4.6 1 6 2.6 14.1 2.5 53-.1 68.5-.3 1.6-.8 4.6-1.1 6.5-.4 1.9-.8 4.4-1 5.5-.3 2.1-.4 2.7-2.4 11-3.3 14.2-10.7 33.9-18.7 50-6.4 12.9-20.3 34.9-26.2 41.4-1.7 1.9-3.1 3.8-3.1 4.2 0 1.5-28.1 29-36 35.1-23.7 18.3-50.9 32.7-77.5 40.8-7.9 2.5-22.2 6.1-26 6.6-1.6.3-5.2.9-8 1.4-9.4 1.8-19 2.4-38 2.4s-28.2-.7-40.5-3c-1.4-.2-4-.7-5.9-.9-1.8-.3-3.6-.7-4-1-.4-.2-2.1-.6-3.7-.9-13-2.3-39.9-12.2-55.1-20.3-12.8-6.7-14.8-7.8-15.3-8.3-.3-.3-4.1-2.9-8.6-5.8-4.4-2.9-8.9-6-10-7-1-1-2.7-2.3-3.6-2.8-3.4-1.9-14.7-12.1-25.1-22.7-33.3-33.9-57.1-80.9-64.3-126.7-.3-1.9-.7-4.6-.9-6-2.7-15.6-2.6-55.4 0-68.5.3-1.1.7-3.6 1-5.5.8-5.5 1.4-8.5 3.6-17.3 1.1-4.5 2.5-10 3-12.2.6-2.1 1.5-4.5 2.1-5.2.6-.7.8-1.3.5-1.3-.5 0 4-12.3 6.9-19 7.9-17.8 24.1-44.8 32.3-53.9 1.7-1.9 3.1-3.7 3.1-4.1 0-1.3 25-26.1 33-32.7 25.8-21.3 63.2-40 94.5-47.3 8.3-2 8.9-2.1 11-2.4 1.1-.2 3.6-.6 5.5-1 8.3-1.5 9.8-1.7 16-2.2 3.6-.3 6.6-.7 6.8-.9.5-.5 40.4.3 43.7.9z" />
</svg>